<?xml version="1.0" standalone="no"?>
<!-- Generator: Adobe Fireworks 10, Export SVG Extension by Aaron Beall (http://fireworks.abeall.com) . Version: 0.6.1  -->
<!DOCTYPE svg PUBLIC "-//W3C//DTD SVG 1.1//EN" "http://www.w3.org/Graphics/SVG/1.1/DTD/svg11.dtd">
<svg id="Untitled-Page%201" viewBox="0 0 16 16" style="background-color:#ffffff00" version="1.1"
	xmlns="http://www.w3.org/2000/svg" xmlns:xlink="http://www.w3.org/1999/xlink" xml:space="preserve"
	x="0px" y="0px" width="16px" height="16px"
>
	<g id="Layer%201">
		<path opacity="0.2" d="M 14 15 L 0 15 L 0 14 L 14 14 L 14 15 Z" fill="#221e1f"/>
		<path d="M 13 13 L 15 7 L 13 7 L 13 4 L 5 4 L 5 3 L 1 3 L 1 13 L 11 13 L 11 13 " fill="#fdb52f"/>
		<path d="M 1 13 L 1 3 L 5 3 L 5 4 L 13 4 L 13 6 L 14 6 L 14 3.5 C 14 3.2236 13.7764 3 13.5 3 L 6 3 L 6 2 L 0.5 2 C 0.2236 2 0 2.2236 0 2.5 L 0 13.5 C 0 13.7764 0.2236 14 0.5 14 L 1 14 L 1 14 " fill="#ad7629"/>
		<path d="M 2 8.5 L 0 13.5 C 0 13.7764 0.2236 14 0.5 14 L 1 14 L 13 14 L 13.5 14 C 13.7764 14 14 13.7764 14 13.5 L 16 6.5 C 16 6.2236 15.7764 6 15.5 6 L 10 6 L 8 8 L 2.5 8 C 2.2236 8 2 8.2236 2 8.5 ZM 3 9 L 9 9 L 11 7 L 15 7 L 13 13 L 1 13 L 3 9 Z" fill="#ad7629"/>
		<path d="M 0 16 L 0 0 L 16 0 L 16 16 L 0 16 Z" fill="none"/>
	</g>
</svg>