<?xml version="1.0" encoding="UTF-8" standalone="no"?>
<!-- Created with Inkscape (http://www.inkscape.org/) -->

<svg
   xmlns:dc="http://purl.org/dc/elements/1.1/"
   xmlns:cc="http://creativecommons.org/ns#"
   xmlns:rdf="http://www.w3.org/1999/02/22-rdf-syntax-ns#"
   xmlns:svg="http://www.w3.org/2000/svg"
   xmlns="http://www.w3.org/2000/svg"
   version="1.1"
   width="162"
   height="36"
   id="svg3460">
  <defs
     id="defs3462" />
  <metadata
     id="metadata3465">
    <rdf:RDF>
      <cc:Work
         rdf:about="">
        <dc:format>image/svg+xml</dc:format>
        <dc:type
           rdf:resource="http://purl.org/dc/dcmitype/StillImage" />
        <dc:title></dc:title>
      </cc:Work>
    </rdf:RDF>
  </metadata>
  <g
     transform="translate(0,-46)"
     id="layer1">
    <g
       transform="translate(1,47)"
       id="Layer%201">
      <path
         d="m 15.1667,4.25 -6.5,0 0,-3.25 L 1,7.5 8.6667,14 l 0,-3.25 0,0 0,0 0,0 6.5,0 0,-6.5 0,0 z"
         id="path3470"
         style="fill:#343a46" />
    </g>
    <g
       transform="translate(18,47)"
       id="Layer%201-2">
      <path
         d="M 6,4 11,4 8.5,7.0625 6,4 z m 1,4 0,6 3,1 0,-7 5,-7 -13,0 5,7 z"
         id="path3492"
         style="fill:#343a46" />
    </g>
    <g
       transform="translate(127.3987,45.5186)"
       id="g3513">
      <g
         id="Background">
        <path
           d="m 3.5381,8.293 6.1582,5.76 0.905,-1.5449 -4.6409,-4.2406 -0.0312,0.0255 -2.3911,0 z m -0.0589,0 0.0589,0 L 3.5093,8.2675 3.4792,8.293 z m 0.0621,-0.0512 -0.032,0.0257 0.0288,0.0255 2.3911,0 0.0312,-0.0255 -0.0312,-0.0261 -2.3879,4e-4 z m 0,0 -0.0621,-4e-4 0.0301,0.0261 0.032,-0.0257 z m 6.155,-5.7604 -6.155,5.7604 2.3879,-4e-4 0.0312,0.0261 4.6409,-4.2411 -0.905,-1.545 z"
           id="path3504"
           style="fill:#343a46" />
      </g>
      <g
         id="Layer%201-4" />
    </g>
    <g
       transform="translate(144.3987,45.5186)"
       id="g3529">
      <g
         id="Background-5">
        <path
           d="m 12.5425,8.2414 -6.1582,-5.76 -0.9051,1.545 4.6409,4.2406 0.0313,-0.0256 2.3911,0 z m 0.0588,0 -0.0588,0 0.0288,0.0256 0.03,-0.0256 z m -0.062,0.0513 0.032,-0.0257 -0.0288,-0.0256 -2.3911,0 -0.0313,0.0256 0.0313,0.026 2.3879,-3e-4 z m 0,0 0.062,3e-4 -0.03,-0.026 -0.032,0.0257 z m -6.155,5.7603 6.155,-5.7603 -2.3879,3e-4 -0.0313,-0.026 -4.6409,4.2411 0.9051,1.5449 z"
           id="path3520"
           style="fill:#343a46" />
      </g>
      <g
         id="Layer%201-5" />
    </g>
    <g
       transform="translate(37,47)"
       id="Layer%201-1">
      <path
         d="M 10.2593,3.1846 C 9.0952,2.6714 7.7788,2.5913 6.5552,2.979 4.2319,3.7104 2.7231,5.9155 2.8794,8.3428 l -1.585,0.104 C 1.0884,5.2856 3.0552,2.4155 6.0767,1.4614 7.8462,0.9033 9.7642,1.0967 11.3911,1.9761 l 1.5215,-1.626 0.4053,4.5117 -4.7783,0.1587 1.7197,-1.8359 z m -0.0596,11.3618 c -0.6699,0.2095 -1.3652,0.3154 -2.0566,0.3154 -1.125,0 -2.2432,-0.2905 -3.251,-0.833 L 3.3667,15.6567 2.9624,11.1455 7.7388,10.9844 6.021,12.8223 c 1.1631,0.5112 2.4785,0.5918 3.7021,0.2055 2.3233,-0.7329 3.835,-2.9399 3.6758,-5.3637 l 1.586,-0.1036 c 0.207,3.1568 -1.7598,6.0293 -4.7852,6.9859 z"
         id="path3538"
         style="fill:#343a46" />
      <path
         d="M 0,16 0,0 16,0 16,16 0,16 z"
         id="path3540"
         style="fill:none" />
      <path
         d="M 0,16 0,0 16,0 16,16 0,16 z"
         id="path3542"
         style="fill:none" />
      <path
         d="M 0,16 0,0 16,0 16,16 0,16 z"
         id="path3544"
         style="fill:none" />
    </g>
    <g
       transform="translate(54.932875,48)"
       id="Layer%201-7">
      <path
         d="m 8.3076,10.7891 0,0 2.9961,0 C 13.4287,9.4404 14.9707,8.0645 14.9707,5.709 14.9707,2.7715 12.5918,0 9.6572,0 6.7207,0 4.3389,2.7334 4.3389,5.6699 c 0,1.2481 0.4336,2.3877 1.1543,3.2959 l -4.1719,3.7988 c -0.3389,0.3389 -0.3389,0.8877 0,1.2276 0.3389,0.3389 1.2539,1.1826 1.5928,0.8418 L 6.793,10.1563 C 6.7793,10.1436 6.7725,10.123 6.7598,10.1123 7.2266,10.417 7.752,10.6416 8.3076,10.7891 z M 9.6572,1.9756 c 2.0313,0 3.6787,1.6484 3.6787,3.6816 0,2.0323 -1.6474,3.6797 -3.6787,3.6797 -2.0351,0 -3.6816,-1.6474 -3.6816,-3.6797 0,-2.0332 1.6465,-3.6816 3.6816,-3.6816 z"
         id="path3559"
         style="fill:#343b53" />
    </g>
    <g
       transform="translate(108.9166,46.2501)"
       id="Layer%201-11" />
    <g
       transform="translate(72.932875,48)"
       id="Layer%201-52" />
    <g
       transform="translate(90.932875,48)"
       id="Layer%201-76" />
  </g>
  <g
     transform="translate(0.3335,19)"
     id="Layer%201-17">
    <path
       d="M 15.3333,4 9,4 9,1 1.6665,7.5 9,14 l 0,-3.25 0,0 -0.3333,0.25 0,0 L 15,11 15,4.25 15.3333,4 z"
       id="path3015"
       style="fill:#ffffff" />
  </g>
  <g
     transform="translate(19,19)"
     id="Layer%201-40">
    <path
       d="M 5,4 10,4 7.5,7.0625 5,4 z M 6,8 6,14 9,15 9,8 14,1 1,1 6,8 z"
       id="path3027"
       style="fill:#ffffff" />
  </g>
  <g
     transform="translate(37,19)"
     id="Layer%201-9">
    <g
       id="g3039">
      <path
         d="M 10.2593,3.1846 C 9.0952,2.6714 7.7788,2.5913 6.5552,2.979 4.2319,3.7104 2.7231,5.9155 2.8794,8.3428 l -1.585,0.104 C 1.0884,5.2856 3.0552,2.4155 6.0767,1.4614 7.8462,0.9033 9.7642,1.0967 11.3911,1.9761 l 1.5215,-1.626 0.4053,4.5117 -4.7783,0.1587 1.7197,-1.8359 z m -0.0596,11.3618 c -0.6699,0.2095 -1.3652,0.3154 -2.0566,0.3154 -1.125,0 -2.2432,-0.2905 -3.251,-0.833 L 3.3667,15.6567 2.9624,11.1455 7.7388,10.9844 6.021,12.8223 c 1.1631,0.5112 2.4785,0.5918 3.7021,0.2055 2.3233,-0.7329 3.835,-2.9399 3.6758,-5.3637 l 1.586,-0.1036 c 0.207,3.1568 -1.7598,6.0293 -4.7852,6.9859 z"
         id="path3041"
         style="fill:#fcfffd" />
    </g>
    <path
       d="M 0,16 0,0 16,0 16,16 0,16 z"
       id="path3043"
       style="fill:none" />
    <path
       d="M 0,16 0,0 16,0 16,16 0,16 z"
       id="path3045"
       style="fill:none" />
    <path
       d="M 0,16 0,0 16,0 16,16 0,16 z"
       id="path3047"
       style="fill:none" />
  </g>
  <g
     transform="translate(55.0293,20)"
     id="Layer%201-48">
    <path
       d="m 8.3076,10.7891 0,0 2.9961,0 C 13.4287,9.4404 14.9707,8.0645 14.9707,5.709 14.9707,2.7715 12.5918,0 9.6572,0 6.7207,0 4.3389,2.7334 4.3389,5.6699 c 0,1.2481 0.4336,2.3877 1.1543,3.2959 l -4.1719,3.7988 c -0.3389,0.3389 -0.3389,0.8877 0,1.2276 0.3389,0.3389 1.2539,1.1826 1.5928,0.8418 L 6.793,10.1563 C 6.7793,10.1436 6.7725,10.123 6.7598,10.1123 7.2266,10.417 7.752,10.6416 8.3076,10.7891 z M 9.6572,1.9756 c 2.0313,0 3.6787,1.6484 3.6787,3.6816 0,2.0323 -1.6474,3.6797 -3.6787,3.6797 -2.0351,0 -3.6816,-1.6474 -3.6816,-3.6797 0,-2.0332 1.6465,-3.6816 3.6816,-3.6816 z"
       id="path3063"
       style="fill:#ffffff" />
  </g>
  <g
     transform="translate(109.9166,19.2501)"
     id="Layer%201-171">
    <path
       d="m 13,14 0,-9 2.0834,0 -3.5,-4.2501 -3.5,4.2501 2.25,0 0,0 L 10,4.5834 l 0,0 0,9.4166 3,0 z"
       id="path3123"
       style="fill:#ffffff" />
    <path
       d="m 2,1 0,9 -1.9166,0 3.5,4.2501 3.5,-4.2501 -2.25,0 0,0 0.1666,0.4166 0,0 L 5,1 2,1 z"
       id="path3125"
       style="fill:#ffffff" />
  </g>
  <g
     transform="matrix(1.0714286,0,0,1.0801046,108.83921,0.1099251)"
     id="Layer%201-07">
    <path
       d="m 13,14 0,-8 2.0834,0 -3.5,-4.2501 L 8.0834,6 10,6 l 0,8 3,0 z"
       id="path36544"
       style="fill:#343a46" />
    <path
       d="m 3,2 0,8 -1.9166,0 3.5,4.2501 L 8.0834,10 6,10 6,2 3,2 z"
       id="path36546"
       style="fill:#343a46" />
  </g>
  <g
     transform="translate(73.0293,2)"
     id="Layer%201-174">
    <path
       d="M 12,5 10,5 10,3 9,3 9,5 7,5 7,6 9,6 9,8 10,8 10,6 12,6 12,5 z"
       id="path3037"
       style="fill:#343a46" />
    <path
       d="m 9.7695,10.999 c 2.7686,0 5.2012,-2.9345 5.2012,-5.29 C 14.9707,2.7715 12.5889,0 9.6543,0 6.7178,0 4.3389,2.7334 4.3389,5.6699 c 0,1.2481 0.4336,2.3877 1.1543,3.2959 l -4.1719,3.7988 c -0.3389,0.3389 -0.3389,0.8877 0,1.2276 0.3389,0.3389 1.2539,1.1826 1.5928,0.8418 L 6.793,10.1563 C 6.7793,10.1436 7.6729,10.999 9.7695,10.999 z M 9.5957,1.6348 c 2.0313,0 3.7402,1.9892 3.7402,4.0224 0,2.0323 -1.6474,3.6797 -3.6787,3.6797 -2.0351,0 -3.6816,-1.6474 -3.6816,-3.6797 0,-2.0332 1.5849,-4.0224 3.6201,-4.0224 z"
       id="path3039"
       style="fill:#343a46" />
  </g>
  <g
     transform="translate(91.0293,2)"
     id="Layer%201-0">
    <path
       d="m 12,5 -2,0 0,0 -1,0 0,0 -2,0 0,1 2,0 1,0 2,0 0,-1 z"
       id="path3052"
       style="fill:#343a46" />
    <path
       d="m 9.7695,10.999 c 2.7686,0 5.2012,-2.9345 5.2012,-5.29 C 14.9707,2.7715 12.5889,0 9.6543,0 6.7178,0 4.3389,2.7334 4.3389,5.6699 c 0,1.2481 0.4336,2.3877 1.1543,3.2959 l -4.1719,3.7988 c -0.3389,0.3389 -0.3389,0.8877 0,1.2276 0.3389,0.3389 1.2539,1.1826 1.5928,0.8418 L 6.793,10.1563 C 6.7793,10.1436 7.6729,10.999 9.7695,10.999 z M 9.5957,1.6348 c 2.0313,0 3.7402,1.9892 3.7402,4.0224 0,2.0323 -1.6474,3.6797 -3.6787,3.6797 -2.0351,0 -3.6816,-1.6474 -3.6816,-3.6797 0,-2.0332 1.5849,-4.0224 3.6201,-4.0224 z"
       id="path3054"
       style="fill:#343a46" />
  </g>
  <g
     transform="translate(73.0293,20)"
     id="Layer%201-94">
    <path
       d="M 12,5 10,5 10,3 9,3 9,5 7,5 7,6 9,6 9,8 10,8 10,6 12,6 12,5 z"
       id="path3067"
       style="fill:#ffffff" />
    <path
       d="m 9.7695,10.999 c 2.7686,0 5.2012,-2.9345 5.2012,-5.29 C 14.9707,2.7715 12.5889,0 9.6543,0 6.7178,0 4.3389,2.7334 4.3389,5.6699 c 0,1.2481 0.4336,2.3877 1.1543,3.2959 l -4.1719,3.7988 c -0.3389,0.3389 -0.3389,0.8877 0,1.2276 0.3389,0.3389 1.2539,1.1826 1.5928,0.8418 L 6.793,10.1563 C 6.7793,10.1436 7.6729,10.999 9.7695,10.999 z M 9.5957,1.6348 c 2.0313,0 3.7402,1.9892 3.7402,4.0224 0,2.0323 -1.6474,3.6797 -3.6787,3.6797 -2.0351,0 -3.6816,-1.6474 -3.6816,-3.6797 0,-2.0332 1.5849,-4.0224 3.6201,-4.0224 z"
       id="path3069"
       style="fill:#ffffff" />
  </g>
  <g
     transform="translate(91.0293,20)"
     id="Layer%201-8">
    <path
       d="m 12,5 -2,0 0,0 -1,0 0,0 -2,0 0,1 2,0 1,0 2,0 0,-1 z"
       id="path3082"
       style="fill:#ffffff" />
    <path
       d="m 9.7695,10.999 c 2.7686,0 5.2012,-2.9345 5.2012,-5.29 C 14.9707,2.7715 12.5889,0 9.6543,0 6.7178,0 4.3389,2.7334 4.3389,5.6699 c 0,1.2481 0.4336,2.3877 1.1543,3.2959 l -4.1719,3.7988 c -0.3389,0.3389 -0.3389,0.8877 0,1.2276 0.3389,0.3389 1.2539,1.1826 1.5928,0.8418 L 6.793,10.1563 C 6.7793,10.1436 7.6729,10.999 9.7695,10.999 z M 9.5957,1.6348 c 2.0313,0 3.7402,1.9892 3.7402,4.0224 0,2.0323 -1.6474,3.6797 -3.6787,3.6797 -2.0351,0 -3.6816,-1.6474 -3.6816,-3.6797 0,-2.0332 1.5849,-4.0224 3.6201,-4.0224 z"
       id="path3084"
       style="fill:#ffffff" />
  </g>
</svg>
