<?xml version="1.0" encoding="utf-8"?>
<!-- Generator: Adobe Illustrator 16.0.0, SVG Export Plug-In . SVG Version: 6.00 Build 0)  -->
<svg version="1.2" baseProfile="tiny" id="Layer_1" xmlns="http://www.w3.org/2000/svg" xmlns:xlink="http://www.w3.org/1999/xlink"
	 x="0px" y="0px" width="16px" height="16px" viewBox="0 0 16 16" xml:space="preserve">
<rect x="1" y="15" fill="#444C61" width="13" height="1"/>
<polygon fill="#444C61" points="15,15 0,15 0,4 15,4 15,9.454 "/>
<path fill="#FFFFFF" d="M13.82,12.308"/>
<polygon fill="#FFFFFF" points="14,9.801 14,5 1,5 1,14 10,14 14,14 "/>
<path fill="#444C61" d="M0,1.025V5h15V1L0,1.025z"/>
<rect x="1" y="2" fill="#BFCBDD" width="13" height="2"/>
<path fill="#444C61" d="M5,2c0,0.553-0.447,1-1,1H3C2.447,3,2,2.553,2,2V1c0-0.553,0.447-1,1-1h1c0.553,0,1,0.447,1,1V2z"/>
<path fill="#444C61" d="M13,2c0,0.553-0.447,1-1,1h-1c-0.553,0-1-0.447-1-1V1c0-0.553,0.447-1,1-1h1c0.553,0,1,0.447,1,1V2z"/>
<rect x="4" y="6" fill="#A1A1A1" width="1" height="1"/>
<rect x="6" y="6" fill="#A1A1A1" width="1" height="1"/>
<rect x="8" y="6" fill="#A1A1A1" width="1" height="1"/>
<rect x="10" y="6" fill="#A1A1A1" width="1" height="1"/>
<rect x="12" y="6" fill="#A1A1A1" width="1" height="1"/>
<rect x="2" y="8" fill="#A1A1A1" width="1" height="1"/>
<rect x="4" y="8" fill="#A1A1A1" width="1" height="1"/>
<rect x="8" y="8" fill="#A1A1A1" width="1" height="1"/>
<rect x="10" y="8" fill="#A1A1A1" width="1" height="1"/>
<rect x="12" y="8" fill="#A1A1A1" width="1" height="1"/>
<rect x="10" y="10" fill="#A1A1A1" width="1" height="1"/>
<rect x="12" y="10" fill="#A1A1A1" width="1" height="1"/>
<rect x="2" y="10" fill="#A1A1A1" width="1" height="1"/>
<rect x="4" y="10" fill="#A1A1A1" width="1" height="1"/>
<rect x="6" y="10" fill="#A1A1A1" width="1" height="1"/>
<rect x="2" y="12" fill="#A1A1A1" width="1" height="1"/>
<rect x="4" y="12" fill="#A1A1A1" width="1" height="1"/>
<rect x="6" y="12" fill="#A1A1A1" width="1" height="1"/>
<rect x="8" y="10" fill="#A1A1A1" width="1" height="1"/>
<rect x="6" y="8" fill="#A1A1A1" width="1" height="1"/>
<rect x="3" y="1" fill="#FFFFFF" width="1" height="1"/>
<rect x="11" y="1" fill="#FFFFFF" width="1" height="1"/>
<path fill="#444C61" d="M5,7v3h3V7H5z M7,9H6V8h1V9z"/>
<rect id="_x3C_Slice_x3E__420_" fill="none" width="16" height="16"/>
</svg>
